<?xml version="1.0" standalone="no"?><!DOCTYPE svg PUBLIC "-//W3C//DTD SVG 1.1//EN" "http://www.w3.org/Graphics/SVG/1.1/DTD/svg11.dtd"><svg class="icon" width="200px" height="199.80px" viewBox="0 0 1025 1024" version="1.1" xmlns="http://www.w3.org/2000/svg"><path fill="#333333" d="M466.8416 301.056q-18.432 0-31.744-12.8t-13.312-32.256l0-29.696q0-7.168 3.584-13.824t8.704-14.336 10.24-17.92 7.168-26.624q5.12-17.408 3.072-32.768-1.024-8.192-3.072-15.36 0-18.432 13.312-31.744t31.744-13.312q9.216 0 17.92-0.512t14.848 1.536 9.728 8.704 3.584 20.992q0 18.432-2.56 27.136t-6.144 14.336-8.192 11.264-7.68 16.384-5.12 29.696 0 51.712l0 29.696q0 7.168-13.824 18.432t-32.256 11.264zM286.6176 301.056q-19.456 0-32.256-12.8t-12.8-32.256l0-29.696q0-7.168 3.584-13.824t8.704-14.336 10.24-17.92 7.168-26.624q2.048-8.192 2.56-16.896t-0.512-15.872q-1.024-8.192-2.048-15.36 0-18.432 13.312-31.744t31.744-13.312q9.216 0 17.408-0.512t14.848 1.536 10.24 8.704 3.584 20.992q0 26.624-5.632 35.328t-11.776 17.92-11.264 28.672-3.072 68.608l0 29.696q0 7.168-12.8 18.432t-31.232 11.264zM782.2336 421.888q52.224 0 96.256 12.8t76.288 38.912 50.688 64.512 18.432 90.624-18.432 92.16-50.688 67.072-76.288 41.472-96.256 14.336l-29.696 0q-8.192 58.368-23.552 107.52t-35.84 72.704l-608.256 0q-17.408-8.192-30.208-41.984t-22.016-83.968-14.848-111.616-9.728-124.928q-9.216-147.456-8.192-330.752l782.336 0 0 34.816q0 14.336-0.512 29.696t0.512 26.624zM752.5376 782.336q36.864 0 71.68-10.24t62.464-30.208 44.544-48.64 16.896-64.512q0-72.704-46.08-110.08t-119.808-37.376q0 35.84-2.56 79.36t-6.656 86.016-9.728 78.848-10.752 56.832z" /></svg>