<?xml version="1.0" standalone="no"?><!DOCTYPE svg PUBLIC "-//W3C//DTD SVG 1.1//EN" "http://www.w3.org/Graphics/SVG/1.1/DTD/svg11.dtd"><svg class="icon" width="200px" height="200.00px" viewBox="0 0 1024 1024" version="1.1" xmlns="http://www.w3.org/2000/svg"><path fill="#333333" d="M1024 481.28q0 29.696-10.24 51.2t-25.088 41.472-30.208 40.96-24.576 49.664q-3.072 8.192-5.632 26.112t-5.12 42.496-5.12 53.76-4.608 57.856q-5.12 67.584-10.24 148.48 0 9.216-6.144 15.36-5.12 6.144-17.408 10.752t-35.84 4.608q-24.576 0-41.472-4.608t-28.16-10.752q-12.288-6.144-21.504-15.36l0-29.696-481.28 0 0 29.696q-9.216 9.216-21.504 15.36-11.264 6.144-28.16 10.752t-40.448 4.608q-24.576 0-36.864-4.608t-17.408-10.752q-6.144-6.144-6.144-15.36-5.12-80.896-9.216-148.48-2.048-28.672-4.608-57.856t-5.12-53.76-5.12-42.496-5.632-26.112q-10.24-28.672-25.6-49.664t-30.208-40.96-25.088-41.472-10.24-51.2q0-58.368 41.984-89.6t112.64-31.232q24.576 0 41.984 8.704t30.208 22.528 20.992 31.744 13.312 37.376q-5.12-32.768-15.872-62.464t-33.28-48.128q-11.264-9.216-26.112-17.408t-31.744-15.36-33.792-13.312-30.208-9.216l0-9.216q0-10.24 0.512-33.28t10.24-51.2 33.28-58.88 70.656-55.808 121.344-40.96 185.856-15.872q110.592 0 184.832 15.872t121.344 40.96 71.168 55.808 33.792 58.88 10.24 51.2 0.512 33.28l0 9.216q-13.312 3.072-30.208 8.704t-33.792 12.288-32.256 15.36-25.6 18.944q-17.408 17.408-28.672 45.056 13.312-14.336 33.792-24.576t52.224-10.24q71.68 0 113.152 31.232t41.472 89.6zM752.64 602.112q13.312 0 22.016-8.704t8.704-20.992q0-13.312-8.704-22.016t-22.016-8.704q0-6.144-18.944-16.384t-51.712-19.968-76.288-16.896-93.696-7.168-93.696 7.168-76.288 16.896-51.712 19.968-18.944 16.384q-12.288 0-20.992 8.704t-8.704 22.016q0 12.288 8.704 20.992t20.992 8.704q33.792-16.384 72.704-29.696 32.768-11.264 74.752-20.48t87.04-10.24l2.048 0q46.08 1.024 89.6 10.24t78.336 20.48q40.96 13.312 76.8 29.696z" /></svg>