<?xml version="1.0" standalone="no"?><!DOCTYPE svg PUBLIC "-//W3C//DTD SVG 1.1//EN" "http://www.w3.org/Graphics/SVG/1.1/DTD/svg11.dtd"><svg class="icon" width="200px" height="200.00px" viewBox="0 0 1024 1024" version="1.1" xmlns="http://www.w3.org/2000/svg"><path fill="#333333" d="M680.96 546.816l38.912 444.416-569.344-260.096-150.528-477.184 165.888 70.656q-6.144 9.216-9.216 19.456-5.12 24.576 12.8 46.592t47.616 28.16q26.624 5.12 49.664-5.632t31.232-31.232l160.768 69.632q-10.24 12.288-13.312 24.576-5.12 25.6 12.8 46.592t47.616 27.136q28.672 6.144 52.736-6.144t29.184-35.84zM431.104 661.504q8.192-28.672-10.24-55.808t-52.224-36.352q-9.216-3.072-17.408-3.072-17.408-4.096-32.256 0t-25.088 14.336q-20.48 12.288-26.624 34.816-8.192 29.696 10.24 56.32t52.224 35.84q16.384 5.12 33.28 4.096t30.72-7.168 23.552-17.408 13.824-25.6zM960.512 87.04q15.36 36.864 31.744 92.16t24.576 123.904 4.608 148.48-28.16 166.4-75.776 177.152-136.192 180.736l-37.888-436.224q18.432-14.336 52.736-48.128t68.608-89.6 61.952-133.632 33.792-181.248zM900.096 35.84q0 104.448-24.064 183.296t-55.808 134.656-64.512 89.088-49.152 46.592q-5.12-2.048-30.208-12.8t-64-27.648-88.576-38.4-103.936-45.056-109.568-47.104-105.472-45.568-92.672-39.936-70.144-30.208l179.2-35.84 0 6.144q5.12 19.456 27.648 28.16t52.224 2.56 47.616-23.552 13.824-36.864l-2.048-5.12 216.064-44.032 1.024 5.12q4.096 18.432 27.136 27.648t52.736 3.072 47.104-24.064 13.312-36.352l-1.024-3.072 183.296-36.864 0 6.144zM561.152 314.368q31.744 0 53.76-12.288t22.016-29.696-22.016-30.208-53.76-12.8-53.248 12.8-21.504 30.208 21.504 29.696 53.248 12.288z" /></svg>