<?xml version="1.0" standalone="no"?><!DOCTYPE svg PUBLIC "-//W3C//DTD SVG 1.1//EN" "http://www.w3.org/Graphics/SVG/1.1/DTD/svg11.dtd"><svg class="icon" width="200px" height="200.00px" viewBox="0 0 1024 1024" version="1.1" xmlns="http://www.w3.org/2000/svg"><path fill="#333333" d="M820.224 493.568q17.408 17.408 17.408 43.52t-17.408 44.544l-422.912 423.936q-19.456 17.408-45.568 17.408t-43.52-17.408l-289.792-289.792q-18.432-18.432-18.432-44.032t18.432-45.056l423.936-422.912q18.432-18.432 44.032-18.432t44.032 18.432zM507.904 359.424q9.216-9.216 9.216-22.528t-9.216-21.504q-9.216-9.216-22.016-9.216t-22.016 9.216l-311.296 311.296q-9.216 9.216-9.216 22.528t9.216 22.528 22.016 9.216 22.016-9.216zM919.552 414.72q14.336 14.336 14.336 33.792t-14.336 33.792q-13.312 14.336-32.768 14.336t-33.792-14.336l-311.296-311.296q-14.336-14.336-14.336-33.792t14.336-33.792q13.312-14.336 32.768-14.336t33.792 14.336zM1009.664 81.92q-14.336 13.312-33.28 13.312t-33.28-13.312q19.456 20.48 28.672 46.08t7.168 54.272-14.336 56.832-33.792 52.736l0 1.024q10.24 9.216 10.24 22.016t-10.24 22.016q-9.216 9.216-22.528 9.216t-22.528-9.216l-199.68-199.68q-8.192-9.216-8.192-22.528t9.216-22.528q8.192-10.24 21.504-10.24t22.528 10.24l0 1.024q24.576-22.528 53.248-34.816t57.344-13.824 54.784 7.168 46.592 28.16q-14.336-14.336-14.336-33.28t14.336-32.256q14.336-14.336 33.28-14.336t33.28 14.336q13.312 14.336 13.824 33.792t-13.824 33.792z" /></svg>