<?xml version="1.0" standalone="no"?><!DOCTYPE svg PUBLIC "-//W3C//DTD SVG 1.1//EN" "http://www.w3.org/Graphics/SVG/1.1/DTD/svg11.dtd"><svg class="icon" width="200px" height="200.00px" viewBox="0 0 1024 1024" version="1.1" xmlns="http://www.w3.org/2000/svg"><path fill="#333333" d="M720.896 242.688q47.104 28.672 86.528 68.096t67.072 88.064 43.008 103.424 15.36 114.176q0 91.136-34.304 165.888t-93.696 128.512-138.24 83.456-168.96 29.696q-91.136 0-170.496-29.696t-138.752-83.456-93.696-128.512-34.304-165.888q0-58.368 14.848-113.152t42.496-102.4 66.56-87.552 86.016-68.608q-2.048-12.288-1.536-27.648t2.56-35.84q0-18.432 17.92-44.544t48.64-50.176 71.68-40.448 88.064-16.384q46.08 0 87.04 16.384t71.68 40.448 48.128 50.176 17.408 44.544q2.048 18.432 1.536 33.792t-2.56 27.648zM407.552 94.208q-22.528 11.264-33.28 27.648t-5.632 27.648q6.144 11.264 26.112 10.24t41.472-13.312q22.528-11.264 33.792-27.648t5.12-27.648-26.112-10.24-41.472 13.312zM497.664 932.864q71.68 0 134.144-22.528t109.568-64 74.24-99.84 27.136-130.048q0-56.32-17.408-108.032t-48.128-94.208-73.728-74.752-94.208-49.664q-23.552-5.12-50.688-11.264t-55.808-7.168l-5.12 0-6.144 0q-21.504 1.024-41.984 4.096t-40.96 7.168q-55.296 14.336-102.912 46.08t-81.92 75.776-53.76 98.304-19.456 113.664q0 71.68 27.136 130.048t74.24 99.84 110.592 64 135.168 22.528z" /></svg>