<?xml version="1.0" standalone="no"?><!DOCTYPE svg PUBLIC "-//W3C//DTD SVG 1.1//EN" "http://www.w3.org/Graphics/SVG/1.1/DTD/svg11.dtd"><svg class="icon" width="200px" height="200.00px" viewBox="0 0 1024 1024" version="1.1" xmlns="http://www.w3.org/2000/svg"><path fill="#333333" d="M921.6 208.896q17.408 24.576 9.216 71.68-3.072 20.48-12.8 47.104t-28.16 61.44-47.616 78.336-72.192 96.768q-7.168 22.528-11.264 41.984-3.072 17.408-2.56 35.328t11.776 30.208q7.168 8.192 19.968 18.944t27.136 28.16 28.16 42.496 23.552 61.44 12.8 86.016-4.096 115.2l-716.8 0q-8.192-65.536-4.608-115.2t13.824-85.504 24.576-60.928 28.672-41.984 26.624-28.16 18.432-20.48q8.192-12.288 9.216-29.696t-1.024-34.816q-3.072-19.456-8.192-40.96-44.032-53.248-74.752-96.768t-50.688-78.848-30.72-62.464-14.848-47.616q-11.264-48.128 5.12-73.728 57.344-30.72 104.448-42.496t81.92-13.824q40.96-2.048 73.728 5.12 20.48-66.56 47.104-98.816t51.2-44.544q28.672-14.336 59.392-11.264 28.672-3.072 56.32 11.264 23.552 12.288 49.152 45.056t46.08 99.328q30.72-7.168 70.656-5.12 33.792 2.048 79.872 13.824t101.376 43.52z" /></svg>