<?xml version="1.0" standalone="no"?><!DOCTYPE svg PUBLIC "-//W3C//DTD SVG 1.1//EN" "http://www.w3.org/Graphics/SVG/1.1/DTD/svg11.dtd"><svg class="icon" width="200px" height="200.00px" viewBox="0 0 1024 1024" version="1.1" xmlns="http://www.w3.org/2000/svg"><path fill="#333333" d="M812.032 0q25.6 0 43.52 17.408t17.92 41.984l0 905.216q0 25.6-17.92 42.496t-43.52 16.896l-602.112 0q-24.576 0-41.984-16.896t-17.408-42.496l0-905.216q0-24.576 17.408-41.984t41.984-17.408l602.112 0zM406.528 59.392q-15.36 0-15.36 16.384 0 5.12 4.096 10.24t11.264 5.12l181.248 0q6.144 0 10.752-5.12t4.608-10.24q0-7.168-4.608-11.776t-10.752-4.608l-181.248 0zM512 994.304q24.576 0 43.008-17.92t18.432-42.496q0-25.6-18.432-43.008t-43.008-17.408q-25.6 0-43.008 17.408t-17.408 43.008q0 24.576 17.408 42.496t43.008 17.92zM812.032 210.944q0-25.6-17.408-43.008t-41.984-17.408l-482.304 0q-25.6 0-43.008 17.408t-17.408 43.008l0 571.392q0 25.6 17.408 43.52t43.008 17.92l482.304 0q24.576 0 41.984-17.92t17.408-43.52l0-571.392z" /></svg>