<?xml version="1.0" standalone="no"?><!DOCTYPE svg PUBLIC "-//W3C//DTD SVG 1.1//EN" "http://www.w3.org/Graphics/SVG/1.1/DTD/svg11.dtd"><svg class="icon" width="200px" height="200.00px" viewBox="0 0 1024 1024" version="1.1" xmlns="http://www.w3.org/2000/svg"><path fill="#333333" d="M1021.952 835.584q-1.024 10.24 0 27.648t-3.072 26.624q-24.576 11.264-51.712 18.432t-55.808 11.264-56.832 6.144-54.784 3.072q-64.512 4.096-129.024 4.096t-129.024-2.048q-19.456-1.024-31.744-3.072t-23.552-17.408q-9.216-11.264-16.896-22.016t-14.848-22.016q-17.408-27.648-31.744-57.344l-28.672-59.392q-11.264-20.48-26.112-48.64t-31.744-57.856-33.792-56.832-31.232-44.544q-6.144-7.168-13.312-7.68t-15.36 2.56l-16.384 4.096q-8.192 3.072-16.384 1.024-13.312 26.624-19.456 53.76t-9.728 54.784-6.656 56.32-10.24 57.344q-7.168 31.744-9.728 62.976t-2.56 62.976q-1.024 2.048-0.512 5.632t0.512 5.632q-6.144 2.048-13.312 2.048l-12.288 0q-6.144 0-18.432 1.536t-17.408-1.536q-1.024-8.192 0-14.848t0-14.848q-5.12-59.392-9.728-120.832t-12.8-122.368-21.504-119.808-35.84-114.176q-12.288-36.864-8.704-74.752t17.92-73.728 35.84-68.096 45.056-58.88q99.328 93.184 195.072 189.952t190.976 195.072q21.504 21.504 41.984 44.032t43.008 43.008 48.128 36.864 55.296 26.624q27.648 9.216 57.344 9.216 8.192 1.024 16.384 1.024t16.384-2.048q4.096-6.144 8.704-11.776t10.752-10.752q11.264-10.24 25.6-16.384t29.184-6.144 29.184 5.632 24.576 17.92q15.36 20.48 15.36 43.008 0 7.168 1.024 10.24t2.56 5.632 4.608 5.12 7.168 8.704q6.144 9.216 6.144 20.48 10.24 4.096 20.48 12.288 21.504 17.408 34.816 45.056 2.048 6.144 4.096 12.8t3.072 12.8q11.264 0 18.432 4.096l6.144 6.144q2.048 3.072 5.12 6.144z" /></svg>