<?xml version="1.0" standalone="no"?><!DOCTYPE svg PUBLIC "-//W3C//DTD SVG 1.1//EN" "http://www.w3.org/Graphics/SVG/1.1/DTD/svg11.dtd"><svg class="icon" width="200px" height="200.00px" viewBox="0 0 1024 1024" version="1.1" xmlns="http://www.w3.org/2000/svg"><path fill="#333333" d="M1024 496.64q-82.944-10.24-167.936-53.248t-158.72-116.736-116.224-158.72-53.76-167.936q95.232 3.072 184.832 39.936t162.304 109.568 110.08 162.304 39.424 184.832zM464.896 2.048q11.264 95.232 57.856 190.976t129.536 178.688 178.688 130.048 190.976 58.368q-8.192 87.04-44.544 167.424t-102.912 146.944-146.944 102.912-167.424 44.544q-11.264-95.232-58.368-190.976t-130.048-178.688-178.688-129.536-190.976-57.856q8.192-87.04 45.056-167.936t102.4-147.456q66.56-65.536 147.456-102.4t167.936-45.056zM0 527.36q82.944 11.264 167.936 53.76t158.72 116.224 116.736 158.72 53.248 167.936q-95.232-2.048-184.832-39.424t-162.304-110.08-109.568-162.304-39.936-184.832z" /></svg>